<svg width="15" height="18" viewBox="0 0 15 18" fill="none" xmlns="http://www.w3.org/2000/svg">
<path fill-rule="evenodd" clip-rule="evenodd" d="M6.52463 17.426C6.61747 17.5004 6.69103 17.558 6.74212 17.5975L7.274 17.9965L7.80588 17.5975C7.85697 17.558 7.93053 17.5004 8.02337 17.426C8.20897 17.2773 8.47198 17.0608 8.78664 16.7861C9.4149 16.2375 10.2544 15.4522 11.0963 14.506C12.7452 12.6529 14.548 10.024 14.548 7.274C14.548 3.25668 11.2913 0 7.274 0C3.25668 0 0 3.25668 0 7.274C0 10.024 1.80282 12.6529 3.45169 14.506C4.29356 15.4522 5.1331 16.2375 5.76136 16.7861C6.07602 17.0608 6.33903 17.2773 6.52463 17.426ZM7.274 1.5C4.08511 1.5 1.5 4.08511 1.5 7.274C1.5 9.43188 2.95918 11.696 4.57231 13.5089C5.36144 14.3958 6.1529 15.1367 6.74789 15.6561C6.94891 15.8317 7.12689 15.9814 7.274 16.1023C7.42111 15.9814 7.59909 15.8317 7.80011 15.6561C8.3951 15.1367 9.18656 14.3958 9.97569 13.5089C11.5888 11.696 13.048 9.43188 13.048 7.274C13.048 4.08511 10.4629 1.5 7.274 1.5Z" fill="#222222"/>
<path fill-rule="evenodd" clip-rule="evenodd" d="M7.27396 4.76196C5.88662 4.76196 4.76196 5.88662 4.76196 7.27396C4.76196 8.6613 5.88662 9.78596 7.27396 9.78596C8.6613 9.78596 9.78596 8.6613 9.78596 7.27396C9.78596 5.88662 8.6613 4.76196 7.27396 4.76196ZM3.26196 7.27396C3.26196 5.0582 5.0582 3.26196 7.27396 3.26196C9.48973 3.26196 11.286 5.0582 11.286 7.27396C11.286 9.48973 9.48973 11.286 7.27396 11.286C5.0582 11.286 3.26196 9.48973 3.26196 7.27396Z" fill="#222222"/>
</svg>
