<svg width="18" height="18" viewBox="0 0 18 18" fill="none" xmlns="http://www.w3.org/2000/svg">
<path fill-rule="evenodd" clip-rule="evenodd" d="M13.4711 0.0389886C12.7495 -0.126998 12.0202 0.250129 11.7292 0.920535L11.7279 0.923517L10.1794 4.53387C9.91232 5.15691 10.089 5.88378 10.6182 6.31271L12.105 7.53089C11.0779 9.44779 9.48201 11.06 7.53224 12.103L6.31202 10.6144C5.88278 10.0907 5.16154 9.90894 4.53467 10.1775L0.927131 11.7223L0.920811 11.7251C0.252455 12.0186 -0.12789 12.7489 0.0392437 13.4702L0.811749 16.8214C0.971072 17.5095 1.58354 18.0002 2.29564 18.0002C10.9612 18.0002 17.9982 10.9796 18 2.30201C18.0049 1.58874 17.5162 0.973905 16.8229 0.814566L13.4711 0.0389886ZM13.1052 1.51777L11.5581 5.12485L13.9714 7.12098L13.7233 7.64964C12.4892 10.2787 10.3358 12.4629 7.65037 13.7212L7.12201 13.9687L5.12545 11.5562L1.52273 13.099C1.51354 13.1034 1.50716 13.11 1.50325 13.1176C1.49923 13.1255 1.50037 13.131 1.50037 13.131L1.50064 13.1321L2.27309 16.4831C2.27544 16.493 2.28366 16.5002 2.29564 16.5002C10.135 16.5002 16.5 10.1483 16.5 2.29866V2.29196C16.5001 2.28769 16.4992 2.28464 16.4992 2.28464L16.4976 2.28176L16.4949 2.27939C16.4949 2.27939 16.4919 2.2776 16.4876 2.27662L16.4862 2.27629L13.1348 1.50081C13.1315 1.50008 13.1272 1.50031 13.1272 1.50031C13.125 1.5006 13.1221 1.50138 13.119 1.50296C13.1129 1.50607 13.1081 1.51126 13.1052 1.51777Z" fill="#222222"/>
</svg>
